<mxfile host="app.diagrams.net" agent="Mozilla/5.0 (Windows NT 10.0; Win64; x64; rv:134.0) Gecko/20100101 Firefox/134.0" version="26.0.7">
  <diagram id="C5RBs43oDa-KdzZeNtuy" name="Page-1">
    <mxGraphModel dx="880" dy="462" grid="1" gridSize="10" guides="1" tooltips="1" connect="1" arrows="1" fold="1" page="1" pageScale="1" pageWidth="827" pageHeight="1169" math="0" shadow="0">
      <root>
        <mxCell id="WIyWlLk6GJQsqaUBKTNV-0" />
        <mxCell id="WIyWlLk6GJQsqaUBKTNV-1" parent="WIyWlLk6GJQsqaUBKTNV-0" />
        <mxCell id="RgR2Y8-Cdhj5faz8Ajb0-1" value="add.txt" style="rounded=1;whiteSpace=wrap;html=1;" vertex="1" parent="WIyWlLk6GJQsqaUBKTNV-1">
          <mxGeometry x="40" y="90" width="120" height="60" as="geometry" />
        </mxCell>
        <mxCell id="RgR2Y8-Cdhj5faz8Ajb0-2" value="ASK" style="rounded=1;whiteSpace=wrap;html=1;" vertex="1" parent="WIyWlLk6GJQsqaUBKTNV-1">
          <mxGeometry x="230" y="90" width="130" height="60" as="geometry" />
        </mxCell>
        <mxCell id="RgR2Y8-Cdhj5faz8Ajb0-5" value="&lt;div&gt;ADD&lt;/div&gt;" style="rounded=1;whiteSpace=wrap;html=1;" vertex="1" parent="WIyWlLk6GJQsqaUBKTNV-1">
          <mxGeometry x="440" y="80" width="120" height="60" as="geometry" />
        </mxCell>
        <mxCell id="RgR2Y8-Cdhj5faz8Ajb0-7" value="" style="endArrow=classic;html=1;rounded=0;exitX=1;exitY=0.5;exitDx=0;exitDy=0;" edge="1" parent="WIyWlLk6GJQsqaUBKTNV-1" source="RgR2Y8-Cdhj5faz8Ajb0-1">
          <mxGeometry width="50" height="50" relative="1" as="geometry">
            <mxPoint x="390" y="180" as="sourcePoint" />
            <mxPoint x="230" y="120" as="targetPoint" />
          </mxGeometry>
        </mxCell>
        <mxCell id="RgR2Y8-Cdhj5faz8Ajb0-10" value="SUB" style="rounded=1;whiteSpace=wrap;html=1;" vertex="1" parent="WIyWlLk6GJQsqaUBKTNV-1">
          <mxGeometry x="440" y="170" width="120" height="60" as="geometry" />
        </mxCell>
        <mxCell id="RgR2Y8-Cdhj5faz8Ajb0-9" value="" style="endArrow=classic;html=1;rounded=0;entryX=0;entryY=0.5;entryDx=0;entryDy=0;exitX=1;exitY=0.617;exitDx=0;exitDy=0;exitPerimeter=0;" edge="1" parent="WIyWlLk6GJQsqaUBKTNV-1" target="RgR2Y8-Cdhj5faz8Ajb0-5">
          <mxGeometry width="50" height="50" relative="1" as="geometry">
            <mxPoint x="360" y="117.01999999999998" as="sourcePoint" />
            <mxPoint x="250" y="120" as="targetPoint" />
            <Array as="points" />
          </mxGeometry>
        </mxCell>
        <mxCell id="RgR2Y8-Cdhj5faz8Ajb0-11" value="" style="endArrow=classic;html=1;rounded=0;entryX=0.017;entryY=0.383;entryDx=0;entryDy=0;entryPerimeter=0;" edge="1" parent="WIyWlLk6GJQsqaUBKTNV-1" target="RgR2Y8-Cdhj5faz8Ajb0-10">
          <mxGeometry width="50" height="50" relative="1" as="geometry">
            <mxPoint x="390" y="110" as="sourcePoint" />
            <mxPoint x="450" y="120" as="targetPoint" />
            <Array as="points">
              <mxPoint x="390" y="190" />
            </Array>
          </mxGeometry>
        </mxCell>
        <mxCell id="RgR2Y8-Cdhj5faz8Ajb0-12" value="" style="endArrow=classic;html=1;rounded=0;entryX=0.017;entryY=0.383;entryDx=0;entryDy=0;entryPerimeter=0;" edge="1" parent="WIyWlLk6GJQsqaUBKTNV-1">
          <mxGeometry width="50" height="50" relative="1" as="geometry">
            <mxPoint x="388" y="190" as="sourcePoint" />
            <mxPoint x="440" y="273" as="targetPoint" />
            <Array as="points">
              <mxPoint x="388" y="270" />
            </Array>
          </mxGeometry>
        </mxCell>
        <mxCell id="RgR2Y8-Cdhj5faz8Ajb0-13" value="MUL" style="rounded=1;whiteSpace=wrap;html=1;" vertex="1" parent="WIyWlLk6GJQsqaUBKTNV-1">
          <mxGeometry x="440" y="240" width="120" height="60" as="geometry" />
        </mxCell>
        <mxCell id="RgR2Y8-Cdhj5faz8Ajb0-14" value="" style="endArrow=classic;html=1;rounded=0;entryX=0.017;entryY=0.383;entryDx=0;entryDy=0;entryPerimeter=0;" edge="1" parent="WIyWlLk6GJQsqaUBKTNV-1">
          <mxGeometry width="50" height="50" relative="1" as="geometry">
            <mxPoint x="388" y="270" as="sourcePoint" />
            <mxPoint x="440" y="353" as="targetPoint" />
            <Array as="points">
              <mxPoint x="388" y="350" />
            </Array>
          </mxGeometry>
        </mxCell>
        <mxCell id="RgR2Y8-Cdhj5faz8Ajb0-15" value="DIV" style="rounded=1;whiteSpace=wrap;html=1;" vertex="1" parent="WIyWlLk6GJQsqaUBKTNV-1">
          <mxGeometry x="440" y="320" width="120" height="60" as="geometry" />
        </mxCell>
        <mxCell id="RgR2Y8-Cdhj5faz8Ajb0-17" value="" style="endArrow=classic;html=1;rounded=0;entryX=0.017;entryY=0.383;entryDx=0;entryDy=0;entryPerimeter=0;" edge="1" parent="WIyWlLk6GJQsqaUBKTNV-1">
          <mxGeometry width="50" height="50" relative="1" as="geometry">
            <mxPoint x="562" y="203" as="sourcePoint" />
            <mxPoint x="614" y="120" as="targetPoint" />
            <Array as="points">
              <mxPoint x="614" y="200" />
            </Array>
          </mxGeometry>
        </mxCell>
        <mxCell id="RgR2Y8-Cdhj5faz8Ajb0-18" value="" style="endArrow=classic;html=1;rounded=0;entryX=0.017;entryY=0.383;entryDx=0;entryDy=0;entryPerimeter=0;" edge="1" parent="WIyWlLk6GJQsqaUBKTNV-1">
          <mxGeometry width="50" height="50" relative="1" as="geometry">
            <mxPoint x="560" y="283" as="sourcePoint" />
            <mxPoint x="612" y="200" as="targetPoint" />
            <Array as="points">
              <mxPoint x="612" y="280" />
            </Array>
          </mxGeometry>
        </mxCell>
        <mxCell id="RgR2Y8-Cdhj5faz8Ajb0-19" value="" style="endArrow=classic;html=1;rounded=0;entryX=0.017;entryY=0.383;entryDx=0;entryDy=0;entryPerimeter=0;" edge="1" parent="WIyWlLk6GJQsqaUBKTNV-1">
          <mxGeometry width="50" height="50" relative="1" as="geometry">
            <mxPoint x="560" y="363" as="sourcePoint" />
            <mxPoint x="612" y="280" as="targetPoint" />
            <Array as="points">
              <mxPoint x="612" y="360" />
            </Array>
          </mxGeometry>
        </mxCell>
        <mxCell id="RgR2Y8-Cdhj5faz8Ajb0-20" value="" style="endArrow=classic;html=1;rounded=0;exitX=1;exitY=0.617;exitDx=0;exitDy=0;exitPerimeter=0;" edge="1" parent="WIyWlLk6GJQsqaUBKTNV-1">
          <mxGeometry width="50" height="50" relative="1" as="geometry">
            <mxPoint x="560" y="107" as="sourcePoint" />
            <mxPoint x="660" y="107" as="targetPoint" />
            <Array as="points" />
          </mxGeometry>
        </mxCell>
        <mxCell id="RgR2Y8-Cdhj5faz8Ajb0-21" value="&lt;div&gt;TELL&lt;/div&gt;&lt;div&gt;11&lt;br&gt;&lt;/div&gt;" style="rounded=1;whiteSpace=wrap;html=1;" vertex="1" parent="WIyWlLk6GJQsqaUBKTNV-1">
          <mxGeometry x="660" y="80" width="120" height="60" as="geometry" />
        </mxCell>
        <mxCell id="RgR2Y8-Cdhj5faz8Ajb0-22" value="tjg975, 11350917, Rob McLeod" style="text;html=1;align=center;verticalAlign=middle;resizable=0;points=[];autosize=1;strokeColor=none;fillColor=none;" vertex="1" parent="WIyWlLk6GJQsqaUBKTNV-1">
          <mxGeometry x="40" y="30" width="190" height="30" as="geometry" />
        </mxCell>
        <mxCell id="RgR2Y8-Cdhj5faz8Ajb0-24" value="CMPT 145 " style="text;html=1;align=center;verticalAlign=middle;resizable=0;points=[];autosize=1;strokeColor=none;fillColor=none;" vertex="1" parent="WIyWlLk6GJQsqaUBKTNV-1">
          <mxGeometry x="40" y="50" width="80" height="30" as="geometry" />
        </mxCell>
      </root>
    </mxGraphModel>
  </diagram>
</mxfile>
